<svg xmlns="http://www.w3.org/2000/svg" viewBox="0 0 286.26 147.26"><defs><style>.cls-1{fill:#fff100;}</style></defs><g id="Layer_2" data-name="Layer 2"><g id="Layer_1-2" data-name="Layer 1"><path class="cls-1" d="M15,130.13A7.39,7.39,0,0,1,17.36,125a6.79,6.79,0,0,1,5-2.08,8.72,8.72,0,0,1,6.17,2.61,9,9,0,0,1,2.52,6.9l-.24,14.88L0,146.76l.18-11.17c.07-4.23.5-6.94,1.26-8.14a7,7,0,0,1,6.48-3.52c3.58.06,6.36,2,7,6.2ZM3.52,142.72l9.79.16.15-9c.07-4.35-1.68-5.76-4.83-5.81-3.66-.06-4.9,1.81-5,5.65Zm24.06-9.88c.06-3.62-1.89-5.81-5.29-5.87s-5.3,2.16-5.36,5.74l-.17,10.22,10.66.18Z"/><path class="cls-1" d="M5.27,99.91c1.54-5.89,5.56-8.32,11.19-6.85s8,5.57,6.42,11.44l-2.29,8.77,12.19,3.18-1,4L2,112.63ZM19.19,105c1.18-4.33-.09-7-3.76-7.94s-6,.74-7.17,5.08l-1.94,7.43,10.93,2.86Z"/><path class="cls-1" d="M46.73,80.6,36.32,79.4,30.65,90.6l7.12,7.71-1.94,3.85-22-24.72,2-4,33,3.08ZM17.78,77l10.47,11,4.65-9.2L17.82,77Z"/><path class="cls-1" d="M51.66,34,40.11,45.29l6.83,7L57.73,41.8l2.4,2.47L49.35,54.78l9.84,10.1-2.93,2.86L34.76,45.68l14.5-14.12Z"/><path class="cls-1" d="M90.14,37.7A10.28,10.28,0,0,0,93,39.2l.23.36-3.79,2.33a9,9,0,0,1-2.24-1.25,20.76,20.76,0,0,1-2.24-2.07c-.79-.88-1.32-1.41-1.55-1.63-2.68-2.45-5.18-3.3-7.93-1.6l-6.95,4.27,6.76,11-3.49,2.15L55.64,26.51l11.17-6.87c5.62-3.46,10.41-2.51,13,1.75Q83.31,27,79,31.64a4.82,4.82,0,0,1,4,.19A14.59,14.59,0,0,1,87.17,35,32,32,0,0,0,90.14,37.7Zm-23.44-1L74.24,32q5.28-3.25,2.08-8.48c-1.7-2.75-4.29-3.09-7.7-1L60.94,27.3Z"/><path class="cls-1" d="M99.7,34l16.57-5,1,3.3L96.76,38.5,87.92,9l20.37-6.1,1,3.3L92.83,11.12l2.82,9.38,15.57-4.67,1,3.31L96.64,23.81Z"/><path class="cls-1" d="M126,28.08l17.28-.77.15,3.45L122,31.71,120.64,1,141.88,0,142,3.45l-17.15.76.43,9.78,16.25-.72.15,3.45-16.24.72Z"/><path class="cls-1" d="M83.3,74.87h4.1v30.8H83.3Z"/><path class="cls-1" d="M109.57,83.71c-.47-4.31-2.84-6.12-7.2-6.12a10,10,0,0,0-5.13,1.25,4.25,4.25,0,0,0-2.12,4c0,8,19.72,1.9,19.72,14.37a7.57,7.57,0,0,1-1.94,5.26c-2.55,2.89-6.22,3.92-10.23,3.92a15.52,15.52,0,0,1-9.23-2.58q-3.61-2.66-3.62-7.9h4.1a6.11,6.11,0,0,0,2.45,5.35,11,11,0,0,0,6.3,1.68,11.87,11.87,0,0,0,5.7-1.29,4.49,4.49,0,0,0,2.37-4.31C110.74,88,91,94.45,91,83.15a7.71,7.71,0,0,1,3.32-6.68,13.67,13.67,0,0,1,8-2.33c6.69,0,11.09,3.06,11.3,9.57Z"/><path class="cls-1" d="M131.83,74.14a14.76,14.76,0,0,1,8.33,2.33,14.21,14.21,0,0,1,5.3,5.91,17.57,17.57,0,0,1,1.73,7.89c0,5.74-2.24,10.74-7,13.85a15.14,15.14,0,0,1-8.33,2.28,15.32,15.32,0,0,1-8.37-2.28,14.81,14.81,0,0,1-5.26-5.91,18.06,18.06,0,0,1-1.72-7.94c0-5.74,2.28-10.74,7-13.8A14.94,14.94,0,0,1,131.83,74.14Zm0,28.81a10.58,10.58,0,0,0,6.3-1.89,11.25,11.25,0,0,0,3.8-4.75c2.33-5.65,1.29-13.11-3.8-16.78a11.18,11.18,0,0,0-12.59,0,10.83,10.83,0,0,0-3.8,4.7c-2.37,5.65-1.29,13.07,3.8,16.83A10.55,10.55,0,0,0,131.83,103Z"/><path class="cls-1" d="M154.39,102.22H170.7v3.45H150.3V74.87h4.09Z"/><path class="cls-1" d="M193.13,105.67l-3.62-9.83H177l-3.67,9.83H169l12.12-30.8h4.53l12.12,30.8Zm-9.88-27.43-5.13,14.32h10.31l-5.09-14.32Z"/><path class="cls-1" d="M217.85,74.87v3.45H207.58v27.35h-4.05V78.32H193.26V74.87Z"/><path class="cls-1" d="M219.75,74.87h4.09v30.8h-4.09Z"/><path class="cls-1" d="M242.57,74.14a14.75,14.75,0,0,1,8.32,2.33,14.3,14.3,0,0,1,5.31,5.91,17.69,17.69,0,0,1,1.72,7.89c0,5.74-2.24,10.74-7,13.85a16.41,16.41,0,0,1-16.69,0,14.83,14.83,0,0,1-5.27-5.91,18.06,18.06,0,0,1-1.72-7.94c0-5.74,2.29-10.74,7-13.8A14.89,14.89,0,0,1,242.57,74.14Zm0,28.81a10.53,10.53,0,0,0,6.29-1.89,11.25,11.25,0,0,0,3.8-4.75c2.33-5.65,1.29-13.11-3.8-16.78a11.18,11.18,0,0,0-12.59,0,10.83,10.83,0,0,0-3.8,4.7c-2.37,5.65-1.29,13.07,3.8,16.83A10.58,10.58,0,0,0,242.57,103Z"/><path class="cls-1" d="M282.38,74.87h3.88v30.8h-4.48L265,81h-.09v24.72H261V74.87h4.36l16.9,25h.09Z"/><path class="cls-1" d="M161.14,123.42c-.73-4.15-4.09-6.17-8.62-6.17a10.15,10.15,0,0,0-8.28,3.66,13.38,13.38,0,0,0-3,8.8,14.07,14.07,0,0,0,3,9.24,10.3,10.3,0,0,0,8.41,3.66c5.13,0,8.41-2.59,9-7.46h4.1c-.82,7.42-5.7,10.91-13.42,10.91-4.66,0-8.37-1.51-11.08-4.53a18.07,18.07,0,0,1,.12-23.07,14.53,14.53,0,0,1,11.22-4.66,15,15,0,0,1,8.63,2.41,9.4,9.4,0,0,1,4.05,7.21Z"/><path class="cls-1" d="M172.06,141.88h16.31v3.45H168v-30.8h4.1Z"/><path class="cls-1" d="M213.82,134.2c0,7.77-4.36,11.86-12.13,11.86-8.15,0-12.63-3.88-12.63-11.86V114.53h4.09V134.2c0,5.48,3,8.41,8.54,8.41,5.22,0,8-2.93,8-8.41V114.53h4.1Z"/><path class="cls-1" d="M234.22,129.28a7.42,7.42,0,0,1,5.22,2.25,6.81,6.81,0,0,1,2.16,5,8.68,8.68,0,0,1-2.51,6.21,9,9,0,0,1-6.85,2.63H217.35v-30.8h11.18c4.22,0,6.94.39,8.15,1.12a7,7,0,0,1,3.62,6.43c0,3.58-1.94,6.38-6.08,7.12ZM221.45,118v9.79h9c4.35,0,5.73-1.77,5.73-4.92,0-3.66-1.89-4.87-5.73-4.87Zm10.27,23.9c3.62,0,5.78-2,5.78-5.39s-2.25-5.27-5.83-5.27H221.45v10.66Z"/></g></g></svg>