<svg xmlns="http://www.w3.org/2000/svg" viewBox="0 0 273.08 145.98"><defs><style>.cls-1{fill:#fff;}</style></defs><g id="Layer_2" data-name="Layer 2"><g id="Layer_1-2" data-name="Layer 1"><path class="cls-1" d="M15.07,128.81a7.42,7.42,0,0,1,2.34-5.18,6.8,6.8,0,0,1,5-2.06,8.69,8.69,0,0,1,6.17,2.62,9,9,0,0,1,2.5,6.91L30.8,146,0,145.4l.21-11.17c.08-4.23.52-6.94,1.27-8.13A7,7,0,0,1,8,122.59c3.58.07,6.35,2.06,7,6.22ZM3.53,141.37l9.79.18.17-9c.08-4.36-1.66-5.78-4.81-5.83-3.67-.07-4.91,1.8-5,5.64Zm24.09-9.82c.07-3.63-1.88-5.82-5.29-5.88S17,127.81,17,131.39l-.19,10.23,10.65.2Z"/><path class="cls-1" d="M5.05,100.4c1.5-5.9,5.51-8.35,11.15-6.91s8,5.51,6.49,11.4l-2.23,8.78,12.21,3.1-1,4-29.85-7.6Zm14,5c1.15-4.34-.14-7-3.82-7.92s-6,.78-7.13,5.13L6.16,110l11,2.79Z"/><path class="cls-1" d="M45.53,82.26l-10.44-1L29.67,92.61,37,100.16l-1.86,3.89L12.55,79.83l1.95-4.09,33,2.36Zm-29-2.93,10.7,10.81,4.45-9.3L16.55,79.25Z"/><path class="cls-1" d="M46.37,38.36,35.42,50.21l7.19,6.64L52.83,45.8l2.53,2.34-10.22,11L55.5,68.77l-2.78,3L30.1,50.87,43.84,36Z"/><path class="cls-1" d="M83.46,40.82a10.3,10.3,0,0,0,2.94,1.3l.25.35L83,45.05A8.79,8.79,0,0,1,80.71,44,20.85,20.85,0,0,1,78.34,42c-.85-.82-1.42-1.32-1.66-1.51-2.84-2.27-5.39-2.94-8-1.06L62,44.21l7.5,10.49-3.34,2.39L48.28,32,59,24.4c5.37-3.84,10.21-3.22,13.12.85q3.84,5.38-.13,10.28a4.79,4.79,0,0,1,4-.08,14.88,14.88,0,0,1,4.4,2.9A31.62,31.62,0,0,0,83.46,40.82ZM60,41.4l7.2-5.14c3.37-2.41,3.87-5.26,1.49-8.6C66.83,25,64.23,24.87,61,27.2l-7.34,5.24Z"/><path class="cls-1" d="M90.41,37.55l16-6.48,1.29,3.2-19.83,8L76.37,13.73l19.72-8L97.38,9,81.46,15.39l3.67,9.08,15.08-6.09,1.29,3.2L86.42,27.67Z"/><path class="cls-1" d="M113.51,29.73,130.59,27l.54,3.41L110,33.79,105.12,3.38l21-3.38.55,3.41-17,2.72,1.56,9.67,16-2.58.55,3.4-16.05,2.59Z"/><path class="cls-1" d="M70.12,74.55h4.1v30.8h-4.1Z"/><path class="cls-1" d="M96.39,83.4c-.47-4.32-2.84-6.13-7.2-6.13a10,10,0,0,0-5.13,1.25,4.25,4.25,0,0,0-2.12,4c0,8,19.72,1.9,19.72,14.37a7.57,7.57,0,0,1-1.94,5.26c-2.55,2.89-6.22,3.93-10.23,3.93a15.52,15.52,0,0,1-9.23-2.59q-3.62-2.66-3.62-7.9h4.1A6.11,6.11,0,0,0,83.19,101a11,11,0,0,0,6.3,1.68,11.87,11.87,0,0,0,5.7-1.29A4.49,4.49,0,0,0,97.56,97c0-9.36-19.71-2.89-19.71-14.2a7.72,7.72,0,0,1,3.32-6.68,13.74,13.74,0,0,1,8-2.33c6.69,0,11.09,3.06,11.3,9.58Z"/><path class="cls-1" d="M118.65,73.82A14.84,14.84,0,0,1,127,76.15a14.3,14.3,0,0,1,5.31,5.91A17.69,17.69,0,0,1,134,90c0,5.74-2.24,10.74-7,13.85a16.35,16.35,0,0,1-16.69,0A14.69,14.69,0,0,1,105,97.89,18.06,18.06,0,0,1,103.3,90c0-5.73,2.28-10.74,7-13.8A15,15,0,0,1,118.65,73.82Zm0,28.81a10.58,10.58,0,0,0,6.3-1.89,11.19,11.19,0,0,0,3.8-4.75c2.33-5.65,1.29-13.11-3.8-16.78a11.18,11.18,0,0,0-12.59,0,10.83,10.83,0,0,0-3.8,4.7c-2.37,5.65-1.29,13.07,3.8,16.83A10.55,10.55,0,0,0,118.65,102.63Z"/><path class="cls-1" d="M141.21,101.9h16.31v3.45h-20.4V74.55h4.09Z"/><path class="cls-1" d="M180,105.35l-3.62-9.83H163.78l-3.67,9.83H155.8l12.12-30.8h4.53l12.12,30.8Zm-9.88-27.43-5.13,14.32h10.31l-5.09-14.32Z"/><path class="cls-1" d="M204.67,74.55V78H194.4v27.35h-4.05V78H180.08V74.55Z"/><path class="cls-1" d="M206.57,74.55h4.1v30.8h-4.1Z"/><path class="cls-1" d="M229.39,73.82a14.83,14.83,0,0,1,8.32,2.33A14.3,14.3,0,0,1,243,82.06,17.69,17.69,0,0,1,244.74,90c0,5.74-2.24,10.74-7,13.85a16.35,16.35,0,0,1-16.69,0,14.77,14.77,0,0,1-5.27-5.91A18.06,18.06,0,0,1,214,90c0-5.73,2.29-10.74,7-13.8A15,15,0,0,1,229.39,73.82Zm0,28.81a10.53,10.53,0,0,0,6.29-1.89,11.19,11.19,0,0,0,3.8-4.75c2.33-5.65,1.29-13.11-3.8-16.78a11.18,11.18,0,0,0-12.59,0,10.83,10.83,0,0,0-3.8,4.7c-2.37,5.65-1.29,13.07,3.8,16.83A10.58,10.58,0,0,0,229.39,102.63Z"/><path class="cls-1" d="M269.2,74.55h3.88v30.8H268.6L251.82,80.64h-.09v24.71h-3.88V74.55h4.36l16.91,25h.08Z"/><path class="cls-1" d="M148,123.1c-.73-4.14-4.09-6.17-8.62-6.17a10.12,10.12,0,0,0-8.28,3.67,13.36,13.36,0,0,0-3,8.8,14.07,14.07,0,0,0,3,9.23,10.27,10.27,0,0,0,8.41,3.66c5.13,0,8.41-2.58,9-7.46h4.1c-.82,7.42-5.7,10.92-13.42,10.92-4.66,0-8.37-1.51-11.08-4.53a16.75,16.75,0,0,1-4.1-11.52,16.56,16.56,0,0,1,4.23-11.56,14.49,14.49,0,0,1,11.21-4.66,15,15,0,0,1,8.63,2.41,9.41,9.41,0,0,1,4.05,7.21Z"/><path class="cls-1" d="M158.88,141.56h16.31V145H154.78v-30.8h4.1Z"/><path class="cls-1" d="M200.64,133.88c0,7.77-4.36,11.87-12.13,11.87-8.15,0-12.63-3.89-12.63-11.87V114.21H180v19.67c0,5.48,3,8.41,8.54,8.41,5.22,0,8-2.93,8-8.41V114.21h4.1Z"/><path class="cls-1" d="M221,129a7.42,7.42,0,0,1,5.22,2.25,6.81,6.81,0,0,1,2.16,5,8.68,8.68,0,0,1-2.51,6.21,9,9,0,0,1-6.85,2.63H204.17v-30.8h11.18c4.22,0,6.94.39,8.15,1.12a7,7,0,0,1,3.62,6.43c0,3.58-1.94,6.39-6.08,7.12Zm-12.77-11.3v9.8h9c4.35,0,5.73-1.77,5.73-4.92,0-3.67-1.89-4.88-5.73-4.88Zm10.27,23.9c3.62,0,5.78-2,5.78-5.39s-2.24-5.26-5.82-5.26H208.27v10.65Z"/></g></g></svg>